<svg width="16" height="16" viewBox="0 0 16 16" fill="none" xmlns="http://www.w3.org/2000/svg">
<g id="edit / show">
<g id="edit / show_2">
<path d="M8.00004 6.00001C6.90537 6.00001 6.00004 6.90601 6.00004 8.00001C6.00004 9.09468 6.90537 10 8.00004 10C9.09404 10 10 9.09468 10 8.00001C10 6.90601 9.09404 6.00001 8.00004 6.00001Z" fill="#A6A6A6"/>
<path d="M8.00004 3.33334C2.93871 3.33334 1.41759 7.74468 1.40366 7.78934L1.33337 8.00001L1.403 8.21068C1.41759 8.25534 2.93871 12.6667 8.00004 12.6667C13.0614 12.6667 14.5825 8.25534 14.5964 8.21068L14.6667 8.00001L14.5971 7.78934C14.5825 7.74468 13.0614 3.33334 8.00004 3.33334ZM8.00004 11.3333C4.45187 11.3333 3.07729 8.76934 2.74442 8.00001C3.07862 7.22801 4.45386 4.66668 8.00004 4.66668C11.5482 4.66668 12.9228 7.23068 13.2557 8.00001C12.9215 8.77201 11.5462 11.3333 8.00004 11.3333Z" fill="#A6A6A6"/>
</g>
</g>
</svg>
